# xmcd CD database file generated by Grip 3.2.0
# 
# Track frame offsets:
#       150
#       15542
#       32446
# 
# Disc length: 707 seconds
# 
# Revision: 2
# Processed by: cddbd v1.5.2PL0 Copyright (c) Steve Scherf et al.
# Submitted via: Grip 3.2.0
# 
DISCID=1402c103
DTITLE=Delorean - Delorean Bonus CD
DYEAR=2004
DGENRE=Pop
TTITLE0=The Light Behind My Head
TTITLE1=Morning Watch
TTITLE2=Jenny Place Your Bets
EXTD=
EXTT0=
EXTT1=
EXTT2=
PLAYORDER=
